<?xml version="1.0" standalone="no"?>
<!DOCTYPE svg PUBLIC "-//W3C//DTD SVG 20010904//EN"
 "http://www.w3.org/TR/2001/REC-SVG-20010904/DTD/svg10.dtd">
<svg version="1.0" xmlns="http://www.w3.org/2000/svg"
 width="800.000000pt" height="800.000000pt" viewBox="0 0 800.000000 800.000000"
 preserveAspectRatio="xMidYMid meet">
<metadata>
Created by potrace 1.14, written by Peter Selinger 2001-2017
</metadata>
<g transform="translate(0.000000,800.000000) scale(0.100000,-0.100000)"
fill="#000000" stroke="none">
<path d="M3790 7844 c-19 -2 -87 -9 -150 -15 -447 -42 -923 -180 -1345 -392
-288 -143 -596 -351 -816 -548 l-77 -69 -298 -2 -299 -3 -5 -360 -5 -360 -68
-110 c-240 -390 -423 -880 -501 -1347 -41 -242 -51 -369 -51 -648 0 -279 10
-406 51 -648 79 -471 260 -954 512 -1368 l62 -102 0 -704 c0 -534 3 -707 12
-716 9 -9 213 -12 856 -12 l844 0 111 -44 c308 -121 622 -199 977 -243 203
-25 657 -25 860 0 355 44 669 122 977 243 l111 44 804 0 c612 0 807 3 816 12
9 9 12 169 12 657 l0 644 69 106 c193 296 332 584 441 911 93 278 149 535 182
835 17 157 17 613 0 770 -71 640 -275 1212 -623 1746 l-69 106 0 284 c0 208
-3 288 -12 297 -9 9 -81 12 -261 12 l-249 0 -76 69 c-220 197 -529 405 -817
548 -409 205 -834 332 -1300 389 -122 15 -594 27 -675 18z m506 -54 c675 -53
1269 -254 1819 -615 138 -90 312 -222 410 -309 l50 -45 -2545 0 -2545 0 50 45
c162 144 443 341 661 463 618 344 1400 516 2100 461z m-3042 -1112 c-103 -105
-213 -237 -322 -383 -41 -55 -76 -102 -78 -104 -2 -2 -4 127 -4 287 l0 292
247 0 248 0 -91 -92z m5464 9 c80 -81 82 -84 60 -95 -13 -6 -38 -14 -56 -17
-37 -8 -434 -230 -493 -277 -20 -15 -42 -28 -49 -28 -21 0 -124 -113 -144
-157 -16 -37 -18 -57 -12 -150 6 -99 9 -110 44 -169 66 -110 188 -190 308
-201 45 -4 69 -1 90 9 51 27 104 48 122 48 9 0 81 38 160 83 108 63 153 95
183 132 42 50 42 54 24 126 -5 20 0 27 29 43 44 23 54 63 35 136 -13 49 -12
53 8 68 12 10 23 28 25 42 3 23 6 21 41 -26 l37 -52 0 -786 0 -787 -27 15
c-81 43 -130 48 -440 46 -259 -2 -306 -5 -357 -21 -32 -10 -62 -17 -66 -14 -4
2 -15 -4 -25 -15 -10 -11 -24 -20 -31 -20 -11 0 -84 -99 -84 -115 0 -3 -9 -26
-21 -51 -24 -53 -29 -185 -9 -237 43 -113 99 -190 164 -225 51 -27 171 -43
364 -49 172 -4 187 -3 237 17 53 21 69 41 77 95 3 16 13 21 53 25 42 4 53 10
72 39 13 19 23 43 23 53 0 33 19 58 45 58 l25 0 0 -1227 0 -1227 -70 -92 c-38
-50 -76 -97 -83 -103 -11 -9 -29 11 -90 97 -46 65 -118 149 -186 216 -61 59
-111 110 -111 111 0 10 -93 153 -142 219 -32 43 -67 95 -78 116 -10 20 -39 61
-64 90 -26 30 -46 58 -46 62 0 5 -14 17 -30 27 -17 10 -54 52 -83 93 -28 41
-128 155 -222 253 -93 97 -175 189 -181 204 -16 39 -63 91 -82 91 -10 0 -24
11 -33 23 -14 18 -15 37 -8 117 4 52 12 111 18 130 21 67 5 351 -30 543 -10
57 -34 253 -45 367 -3 30 -9 71 -14 90 -5 19 -19 78 -31 130 -12 52 -34 129
-49 170 -45 123 -69 211 -79 290 -18 135 -124 437 -188 538 -51 79 -131 191
-162 226 -49 54 -158 118 -406 239 -53 26 -169 66 -225 78 -25 5 -76 18 -115
28 -89 24 -165 39 -235 46 -30 4 -73 11 -95 17 -73 19 -517 -31 -569 -65 -11
-8 -82 -35 -156 -62 -74 -26 -155 -59 -180 -73 -116 -68 -259 -192 -393 -342
-77 -87 -118 -149 -160 -240 -16 -36 -43 -93 -58 -128 -56 -120 -73 -182 -61
-216 13 -37 1 -162 -21 -222 -13 -34 -14 -67 -7 -215 5 -96 14 -212 19 -259 9
-79 15 -279 13 -465 -1 -44 -8 -114 -17 -155 -8 -41 -20 -99 -26 -129 -12 -59
1 -248 26 -376 8 -38 15 -106 16 -150 l2 -79 -65 -61 c-36 -33 -72 -74 -81
-90 -8 -17 -32 -46 -52 -65 -20 -19 -53 -60 -72 -90 -20 -30 -41 -59 -48 -65
-6 -5 -29 -35 -51 -65 -21 -29 -58 -74 -82 -98 -24 -25 -50 -59 -59 -76 -9
-17 -86 -103 -171 -191 -100 -103 -177 -194 -218 -255 -35 -52 -84 -120 -109
-150 -24 -30 -47 -66 -50 -81 -6 -28 -68 -120 -108 -162 -12 -13 -31 -36 -43
-52 l-21 -29 -34 38 c-55 62 -188 235 -235 306 l-44 65 0 1195 c1 1065 2 1192
16 1168 10 -19 23 -28 40 -28 25 0 37 -17 48 -72 11 -49 46 -79 96 -82 40 -2
45 -5 50 -32 12 -54 28 -70 89 -93 55 -20 75 -22 223 -18 204 6 319 24 373 60
59 39 68 48 101 97 56 84 74 144 74 239 0 61 -5 83 -35 147 -37 79 -82 144
-100 144 -6 0 -16 5 -23 12 -6 6 -44 20 -84 31 -62 16 -113 19 -328 21 -327 2
-419 -7 -497 -51 l-43 -24 0 738 0 738 55 80 c30 44 77 109 105 144 l50 65 0
-42 c0 -31 5 -44 20 -52 22 -12 25 -41 9 -89 -18 -51 -4 -95 36 -116 34 -19
34 -19 29 -79 -5 -59 -4 -62 33 -103 46 -50 272 -183 364 -213 35 -11 77 -28
93 -37 48 -26 152 -12 233 32 36 20 80 50 97 67 42 43 94 125 106 169 17 61
14 204 -4 240 -9 18 -16 38 -16 46 0 7 -4 13 -10 13 -5 0 -32 23 -58 50 -27
28 -54 50 -61 50 -7 0 -30 13 -50 28 -20 16 -130 83 -246 149 -195 111 -265
143 -322 147 -19 1 -13 11 44 69 l67 67 2606 0 2605 0 83 -83z m412 -154 c0
-130 -2 -234 -4 -232 -42 47 -166 212 -166 222 0 13 -42 57 -71 73 -8 5 -50
46 -93 92 l-79 82 207 0 206 0 0 -237z m117 -505 c381 -594 593 -1324 593
-2038 0 -714 -212 -1444 -593 -2037 -32 -51 -61 -93 -63 -93 -2 0 -4 958 -4
2130 0 1172 2 2130 4 2130 2 0 31 -42 63 -92z m-6449 -3044 l-3 -1006 -50 84
c-271 455 -444 987 -507 1553 -17 156 -17 594 0 750 63 566 236 1098 507 1553
l50 84 3 -1006 c1 -553 1 -1459 0 -2012z m3642 -1114 c14 -22 30 -205 22 -235
-5 -16 -6 -77 -2 -135 10 -165 -7 -545 -27 -598 -25 -65 -19 -341 9 -394 8
-17 -11 -18 -348 -18 -336 0 -356 1 -348 18 5 9 9 44 11 77 5 164 24 492 33
585 5 58 7 112 5 121 -3 9 2 33 11 54 14 33 15 69 9 265 -9 275 -9 275 73 267
32 -3 122 -2 202 3 176 10 341 5 350 -10z m-3507 -186 c41 -55 100 -131 132
-168 l57 -67 -16 -39 -15 -38 54 -40 c29 -22 84 -57 122 -78 37 -21 118 -81
178 -134 265 -233 502 -396 810 -557 l140 -73 -772 0 -773 0 0 652 c0 358 2
649 4 647 2 -2 37 -49 79 -105z m6197 -599 l0 -595 -732 0 -733 0 140 73 c290
152 542 322 775 525 98 86 390 380 410 413 15 26 133 179 138 179 1 0 2 -268
2 -595z m-1397 141 c64 -90 75 -107 98 -156 12 -25 42 -67 66 -93 24 -26 55
-71 69 -100 14 -30 39 -63 59 -77 19 -14 35 -27 35 -30 0 -15 -387 -226 -396
-217 -3 3 -1 14 5 25 17 32 14 313 -4 402 -42 206 -41 201 -37 315 l2 59 30
-34 c17 -19 49 -61 73 -94z m-3202 -173 c-1 -429 -3 -526 -9 -542 -6 -17 -17
-14 -112 31 -119 55 -310 159 -310 169 0 3 11 11 25 17 13 6 32 26 41 44 9 18
38 58 63 88 26 30 70 87 97 125 44 63 194 245 202 245 2 0 3 -80 3 -177z
m2842 -628 c-122 -53 -443 -142 -647 -180 -256 -47 -402 -59 -696 -59 -294 0
-440 12 -696 59 -204 38 -525 127 -647 180 -28 12 159 14 1343 14 1184 0 1371
-2 1343 -14z"/>
</g>
</svg>
