<?xml version="1.0" encoding="UTF-8" standalone="no"?><svg xmlns="http://www.w3.org/2000/svg" xmlns:xlink="http://www.w3.org/1999/xlink" contentScriptType="application/ecmascript" contentStyleType="text/css" height="385px" preserveAspectRatio="none" style="width:349px;height:385px;background:#00000000;" version="1.1" viewBox="0 0 349 385" width="349px" zoomAndPan="magnify"><defs><style type="text/css"><![CDATA[*.f_000000_e7e7e7 {fill:#000000;}*.f_f8f8f8_070707 {fill:#f8f8f8;}*.s_181818_e7e7e7 {stroke:#181818;}*.f_000000_ffffff {fill:#000000;}*.s_000000_e7e7e7 {stroke:#000000;}*.f_181818_e7e7e7 {fill:#181818;}@media (prefers-color-scheme:dark) {*.f_000000_e7e7e7 {fill:#e7e7e7;}*.f_f8f8f8_070707 {fill:#070707;}*.s_181818_e7e7e7 {stroke:#e7e7e7;}*.f_000000_ffffff {fill:#ffffff;}*.s_000000_e7e7e7 {stroke:#e7e7e7;}*.f_181818_e7e7e7 {fill:#e7e7e7;}}]]></style></defs><g><ellipse class="f_000000_e7e7e7" cx="187" cy="20" rx="10" ry="10" style="stroke:none;stroke-width:1.0;"/><rect class="f_f8f8f8_070707 s_181818_e7e7e7" height="33.7988" rx="12.5" ry="12.5" style="stroke-width:1.5;" width="89" x="142.5" y="50"/><text class="f_000000_ffffff" font-family="sans-serif" font-size="12" lengthAdjust="spacing" textLength="69" x="152.5" y="71.2559">On CastVote</text><rect class="f_f8f8f8_070707 s_181818_e7e7e7" height="33.7988" rx="12.5" ry="12.5" style="stroke-width:1.5;" width="160" x="107" y="103.7988"/><text class="f_000000_ffffff" font-family="sans-serif" font-size="12" lengthAdjust="spacing" textLength="140" x="117" y="125.0547">Broadcast SendChatNote</text><rect class="f_f8f8f8_070707 s_181818_e7e7e7" height="33.7988" rx="12.5" ry="12.5" style="stroke-width:1.5;" width="220" x="77" y="157.5977"/><text class="f_000000_ffffff" font-family="sans-serif" font-size="12" lengthAdjust="spacing" textLength="200" x="87" y="178.8535">Broadcast Meeting Hud Data Update</text><polygon class="f_f8f8f8_070707 s_181818_e7e7e7" points="116.5,211.3965,257.5,211.3965,269.5,223.3965,257.5,235.3965,116.5,235.3965,104.5,223.3965,116.5,211.3965" style="stroke-width:1.5;"/><text class="f_000000_ffffff" font-family="sans-serif" font-size="11" lengthAdjust="spacing" textLength="141" x="116.5" y="227.3899">Host: Have all players voted?</text><text class="f_000000_ffffff" font-family="sans-serif" font-size="11" lengthAdjust="spacing" textLength="18" x="86.5" y="221.0654">yes</text><text class="f_000000_ffffff" font-family="sans-serif" font-size="11" lengthAdjust="spacing" textLength="12" x="269.5" y="221.0654">no</text><rect class="f_f8f8f8_070707 s_181818_e7e7e7" height="33.7988" rx="12.5" ry="12.5" style="stroke-width:1.5;" width="167" x="11" y="245.3965"/><text class="f_000000_ffffff" font-family="sans-serif" font-size="12" lengthAdjust="spacing" textLength="147" x="21" y="266.6523">Broadcast VotingComplete</text><rect class="f_f8f8f8_070707 s_181818_e7e7e7" height="33.7988" rx="12.5" ry="12.5" style="stroke-width:1.5;" width="88" x="50.5" y="299.1953"/><text class="f_000000_ffffff" font-family="sans-serif" font-size="12" lengthAdjust="spacing" textLength="68" x="60.5" y="320.4512">End Meeting</text><ellipse class="s_000000_e7e7e7" cx="94.5" cy="363.9941" rx="11" ry="11" style="stroke-width:1.0;fill:none;"/><ellipse class="f_000000_e7e7e7" cx="94.5" cy="363.9941" rx="6" ry="6" style="stroke:#000000;stroke-width:1.0;"/><rect class="f_f8f8f8_070707 s_181818_e7e7e7" height="33.7988" rx="12.5" ry="12.5" style="stroke-width:1.5;" width="118" x="220.5" y="245.3965"/><text class="f_000000_ffffff" font-family="sans-serif" font-size="12" lengthAdjust="spacing" textLength="98" x="230.5" y="266.6523">Continue meeting</text><line class="s_181818_e7e7e7" style="stroke-width:1.5;" x1="187" x2="187" y1="30" y2="50"/><polygon class="f_181818_e7e7e7 s_181818_e7e7e7" points="183,40,187,50,191,40,187,44" style="stroke-width:1.0;"/><line class="s_181818_e7e7e7" style="stroke-width:1.5;" x1="187" x2="187" y1="83.7988" y2="103.7988"/><polygon class="f_181818_e7e7e7 s_181818_e7e7e7" points="183,93.7988,187,103.7988,191,93.7988,187,97.7988" style="stroke-width:1.0;"/><line class="s_181818_e7e7e7" style="stroke-width:1.5;" x1="187" x2="187" y1="137.5977" y2="157.5977"/><polygon class="f_181818_e7e7e7 s_181818_e7e7e7" points="183,147.5977,187,157.5977,191,147.5977,187,151.5977" style="stroke-width:1.0;"/><line class="s_181818_e7e7e7" style="stroke-width:1.5;" x1="94.5" x2="94.5" y1="279.1953" y2="299.1953"/><polygon class="f_181818_e7e7e7 s_181818_e7e7e7" points="90.5,289.1953,94.5,299.1953,98.5,289.1953,94.5,293.1953" style="stroke-width:1.0;"/><line class="s_181818_e7e7e7" style="stroke-width:1.5;" x1="94.5" x2="94.5" y1="332.9941" y2="352.9941"/><polygon class="f_181818_e7e7e7 s_181818_e7e7e7" points="90.5,342.9941,94.5,352.9941,98.5,342.9941,94.5,346.9941" style="stroke-width:1.0;"/><line class="s_181818_e7e7e7" style="stroke-width:1.5;" x1="104.5" x2="94.5" y1="223.3965" y2="223.3965"/><line class="s_181818_e7e7e7" style="stroke-width:1.5;" x1="94.5" x2="94.5" y1="223.3965" y2="245.3965"/><polygon class="f_181818_e7e7e7 s_181818_e7e7e7" points="90.5,235.3965,94.5,245.3965,98.5,235.3965,94.5,239.3965" style="stroke-width:1.0;"/><line class="s_181818_e7e7e7" style="stroke-width:1.5;" x1="269.5" x2="279.5" y1="223.3965" y2="223.3965"/><line class="s_181818_e7e7e7" style="stroke-width:1.5;" x1="279.5" x2="279.5" y1="223.3965" y2="245.3965"/><polygon class="f_181818_e7e7e7 s_181818_e7e7e7" points="275.5,235.3965,279.5,245.3965,283.5,235.3965,279.5,239.3965" style="stroke-width:1.0;"/><line class="s_181818_e7e7e7" style="stroke-width:1.5;" x1="187" x2="187" y1="191.3965" y2="211.3965"/><polygon class="f_181818_e7e7e7 s_181818_e7e7e7" points="183,201.3965,187,211.3965,191,201.3965,187,205.3965" style="stroke-width:1.0;"/><!--MD5=[5485c4360c8cd60432985956e12d4751]
@startuml
skin plantuml2
skinparam BackgroundColor transparent
start
:On CastVote;
:Broadcast SendChatNote;
:Broadcast Meeting Hud Data Update;
if (Host: Have all players voted?) then (yes)
     :Broadcast VotingComplete;
     :End Meeting;
     stop
else (no)
     :Continue meeting;
     kill
endif
@enduml

PlantUML version 1.2022.1(Tue Feb 01 19:19:58 CET 2022)
(GPL source distribution)
Java Runtime: OpenJDK Runtime Environment
JVM: OpenJDK 64-Bit Server VM
Default Encoding: UTF-8
Language: en
Country: GB
--></g></svg>